<svg xmlns="http://www.w3.org/2000/svg" xmlns:xlink="http://www.w3.org/1999/xlink" width="3840" zoomAndPan="magnify" viewBox="0 0 2880 413.999985" height="552" preserveAspectRatio="xMidYMid meet" version="1.0"><defs><g/><clipPath id="1c54a4934f"><rect x="0" width="2751" y="0" height="413"/></clipPath></defs><g transform="matrix(1, 0, 0, 1, 69, 0)"><g clip-path="url(#1c54a4934f)"><g fill="#000000" fill-opacity="1"><g transform="translate(1.226594, 311.534799)"><g><path d="M 132.546875 -131.84375 C 138.753906 -130.007812 145.425781 -127.769531 152.5625 -125.125 C 159.695312 -122.476562 166.367188 -118.910156 172.578125 -114.421875 C 178.785156 -109.929688 183.90625 -103.890625 187.9375 -96.296875 C 191.96875 -88.703125 193.984375 -79.039062 193.984375 -67.3125 C 193.984375 -50.96875 190.007812 -37.445312 182.0625 -26.75 C 174.125 -16.050781 163.253906 -8.054688 149.453125 -2.765625 C 135.648438 2.523438 119.890625 5.171875 102.171875 5.171875 C 91.347656 5.171875 80.472656 3.617188 69.546875 0.515625 C 58.617188 -2.585938 48.609375 -7.1875 39.515625 -13.28125 C 30.429688 -19.382812 23.125 -27.035156 17.59375 -36.234375 C 12.070312 -45.441406 9.3125 -56.03125 9.3125 -68 C 9.3125 -71.90625 10.003906 -74.488281 11.390625 -75.75 C 12.773438 -77.019531 15.421875 -77.65625 19.328125 -77.65625 L 52.8125 -77.65625 C 56.71875 -77.65625 59.707031 -77.132812 61.78125 -76.09375 C 63.851562 -75.0625 65.003906 -72.363281 65.234375 -68 C 65.460938 -65.695312 66.035156 -63.394531 66.953125 -61.09375 C 67.878906 -58.789062 69.492188 -56.375 71.796875 -53.84375 C 75.242188 -49.695312 80.128906 -46.757812 86.453125 -45.03125 C 92.785156 -43.3125 99.175781 -42.453125 105.625 -42.453125 C 115.050781 -42.453125 123.039062 -43.945312 129.59375 -46.9375 C 136.15625 -49.925781 139.4375 -56.253906 139.4375 -65.921875 C 139.4375 -72.367188 136.445312 -77.085938 130.46875 -80.078125 C 124.488281 -83.066406 116.953125 -85.539062 107.859375 -87.5 C 98.773438 -89.457031 89.285156 -91.929688 79.390625 -94.921875 C 67.878906 -98.597656 57.003906 -102.96875 46.765625 -108.03125 C 36.523438 -113.09375 28.238281 -119.992188 21.90625 -128.734375 C 15.582031 -137.484375 12.421875 -149.109375 12.421875 -163.609375 C 12.421875 -178.566406 16.390625 -191.046875 24.328125 -201.046875 C 32.265625 -211.054688 42.675781 -218.648438 55.5625 -223.828125 C 68.457031 -229.003906 82.035156 -231.828125 96.296875 -232.296875 C 107.335938 -232.296875 118.265625 -231.03125 129.078125 -228.5 C 139.898438 -225.96875 149.738281 -221.992188 158.59375 -216.578125 C 167.457031 -211.171875 174.59375 -204.382812 180 -196.21875 C 185.40625 -188.050781 188.109375 -178.210938 188.109375 -166.703125 C 188.109375 -162.566406 187.414062 -159.921875 186.03125 -158.765625 C 184.65625 -157.617188 182.007812 -157.046875 178.09375 -157.046875 L 144.28125 -157.046875 C 141.050781 -157.046875 138.921875 -158.019531 137.890625 -159.96875 C 136.859375 -161.925781 135.878906 -164.054688 134.953125 -166.359375 C 134.265625 -168.203125 133.398438 -169.867188 132.359375 -171.359375 C 131.328125 -172.859375 129.773438 -174.644531 127.703125 -176.71875 C 124.484375 -179.9375 120.113281 -182.296875 114.59375 -183.796875 C 109.070312 -185.296875 103.664062 -186.046875 98.375 -186.046875 C 94.6875 -186.046875 90.425781 -185.46875 85.59375 -184.3125 C 80.757812 -183.164062 76.617188 -181.148438 73.171875 -178.265625 C 69.722656 -175.390625 68 -171.304688 68 -166.015625 C 68 -160.722656 70.644531 -156.234375 75.9375 -152.546875 C 81.226562 -148.867188 87.613281 -145.707031 95.09375 -143.0625 C 102.570312 -140.414062 109.816406 -138.226562 116.828125 -136.5 C 123.847656 -134.78125 129.085938 -133.226562 132.546875 -131.84375 Z M 132.546875 -131.84375 "/></g></g></g><g fill="#000000" fill-opacity="1"><g transform="translate(210.036138, 311.534799)"><g><path d="M 220.90625 -9.671875 C 221.820312 -7.597656 222.050781 -5.46875 221.59375 -3.28125 C 221.132812 -1.09375 218.945312 0 215.03125 0 L 178.796875 0 C 175.109375 0 172.34375 -0.6875 170.5 -2.0625 C 168.664062 -3.445312 167.054688 -6.210938 165.671875 -10.359375 L 156.015625 -37.625 L 71.453125 -37.625 L 61.78125 -10.359375 C 60.40625 -6.210938 58.851562 -3.445312 57.125 -2.0625 C 55.394531 -0.6875 52.578125 0 48.671875 0 L 12.421875 0 C 8.742188 0 6.613281 -1.09375 6.03125 -3.28125 C 5.457031 -5.46875 5.632812 -7.597656 6.5625 -9.671875 L 83.1875 -216.40625 C 84.5625 -220.09375 86.34375 -222.796875 88.53125 -224.515625 C 90.71875 -226.242188 93.648438 -227.109375 97.328125 -227.109375 L 130.46875 -227.109375 C 134.382812 -227.109375 137.316406 -226.242188 139.265625 -224.515625 C 141.222656 -222.796875 143.007812 -220.09375 144.625 -216.40625 Z M 113.90625 -162.21875 L 88.015625 -85.9375 L 139.78125 -85.9375 Z M 113.90625 -162.21875 "/></g></g></g><g fill="#000000" fill-opacity="1"><g transform="translate(436.102657, 311.534799)"><g><path d="M 199.84375 -227.109375 C 203.0625 -227.109375 205.535156 -226.414062 207.265625 -225.03125 C 208.992188 -223.65625 209.859375 -221.015625 209.859375 -217.109375 L 209.859375 -10.015625 C 209.859375 -7.015625 209.164062 -4.59375 207.78125 -2.75 C 206.40625 -0.914062 203.757812 0 199.84375 0 L 168.4375 0 C 164.0625 0 160.953125 -1.09375 159.109375 -3.28125 C 157.273438 -5.46875 155.207031 -8.285156 152.90625 -11.734375 L 79.734375 -130.125 L 79.734375 -10.015625 C 79.734375 -6.097656 78.867188 -3.445312 77.140625 -2.0625 C 75.410156 -0.6875 72.9375 0 69.71875 0 L 35.546875 0 C 32.554688 0 30.140625 -0.6875 28.296875 -2.0625 C 26.460938 -3.445312 25.546875 -6.097656 25.546875 -10.015625 L 25.546875 -217.109375 C 25.546875 -220.328125 26.234375 -222.796875 27.609375 -224.515625 C 28.992188 -226.242188 31.640625 -227.109375 35.546875 -227.109375 L 68 -227.109375 C 72.363281 -227.109375 75.46875 -226.015625 77.3125 -223.828125 C 79.15625 -221.648438 81.226562 -218.832031 83.53125 -215.375 L 156.703125 -97.328125 L 156.703125 -217.109375 C 156.703125 -221.015625 157.617188 -223.65625 159.453125 -225.03125 C 161.296875 -226.414062 163.710938 -227.109375 166.703125 -227.109375 Z M 199.84375 -227.109375 "/></g></g></g><g fill="#000000" fill-opacity="1"><g transform="translate(671.487934, 311.534799)"><g><path d="M 112.859375 -227.109375 C 123.210938 -227.109375 133.796875 -225.554688 144.609375 -222.453125 C 155.429688 -219.347656 165.441406 -214.6875 174.640625 -208.46875 C 183.847656 -202.257812 191.328125 -194.265625 197.078125 -184.484375 C 202.835938 -174.703125 205.71875 -163.023438 205.71875 -149.453125 L 205.71875 -77.65625 C 205.71875 -64.082031 202.835938 -52.40625 197.078125 -42.625 C 191.328125 -32.84375 183.847656 -24.785156 174.640625 -18.453125 C 165.441406 -12.128906 155.429688 -7.472656 144.609375 -4.484375 C 133.796875 -1.492188 123.210938 0 112.859375 0 L 35.546875 0 C 31.640625 0 28.992188 -0.914062 27.609375 -2.75 C 26.234375 -4.59375 25.546875 -7.015625 25.546875 -10.015625 L 25.546875 -217.109375 C 25.546875 -220.328125 26.234375 -222.796875 27.609375 -224.515625 C 28.992188 -226.242188 31.640625 -227.109375 35.546875 -227.109375 Z M 151.53125 -144.625 C 151.53125 -155.4375 147.960938 -163.890625 140.828125 -169.984375 C 133.691406 -176.085938 124.367188 -179.140625 112.859375 -179.140625 L 79.734375 -179.140625 L 79.734375 -47.984375 L 112.859375 -47.984375 C 124.367188 -47.984375 133.691406 -50.972656 140.828125 -56.953125 C 147.960938 -62.929688 151.53125 -71.445312 151.53125 -82.5 Z M 151.53125 -144.625 "/></g></g></g><g fill="#000000" fill-opacity="1"><g transform="translate(895.828739, 311.534799)"><g><path d="M 187.421875 -117.703125 C 188.109375 -117.472656 190.117188 -116.378906 193.453125 -114.421875 C 196.796875 -112.460938 200.421875 -109.523438 204.328125 -105.609375 C 208.242188 -101.703125 211.695312 -96.523438 214.6875 -90.078125 C 217.675781 -83.640625 219.171875 -75.703125 219.171875 -66.265625 C 219.171875 -51.773438 215.660156 -39.582031 208.640625 -29.6875 C 201.628906 -19.789062 191.96875 -12.367188 179.65625 -7.421875 C 167.34375 -2.472656 153.132812 0 137.03125 0 L 35.546875 0 C 31.640625 0 28.992188 -0.914062 27.609375 -2.75 C 26.234375 -4.59375 25.546875 -7.015625 25.546875 -10.015625 L 25.546875 -217.453125 C 25.546875 -220.671875 26.234375 -223.140625 27.609375 -224.859375 C 28.992188 -226.585938 31.640625 -227.453125 35.546875 -227.453125 L 132.1875 -227.453125 C 151.0625 -227.453125 166.363281 -224.519531 178.09375 -218.65625 C 189.832031 -212.789062 198.519531 -205.082031 204.15625 -195.53125 C 209.789062 -185.976562 212.609375 -175.796875 212.609375 -164.984375 C 212.609375 -153.484375 210.707031 -144.335938 206.90625 -137.546875 C 203.113281 -130.753906 199.203125 -125.863281 195.171875 -122.875 C 191.148438 -119.882812 188.566406 -118.160156 187.421875 -117.703125 Z M 137.71875 -49.015625 C 146.226562 -49.015625 152.785156 -50.796875 157.390625 -54.359375 C 161.992188 -57.929688 164.296875 -63.628906 164.296875 -71.453125 C 164.296875 -79.503906 161.59375 -85.023438 156.1875 -88.015625 C 150.78125 -91.003906 143.929688 -92.5 135.640625 -92.5 L 127.703125 -92.5 C 123.796875 -92.5 121.148438 -93.421875 119.765625 -95.265625 C 118.390625 -97.109375 117.703125 -99.523438 117.703125 -102.515625 L 117.703125 -128.75 C 117.703125 -131.96875 118.390625 -134.4375 119.765625 -136.15625 C 121.148438 -137.882812 123.796875 -138.75 127.703125 -138.75 L 132.1875 -138.75 C 142.3125 -138.75 149.617188 -140.53125 154.109375 -144.09375 C 158.597656 -147.664062 160.84375 -152.789062 160.84375 -159.46875 C 160.84375 -167.289062 158.3125 -172.46875 153.25 -175 C 148.1875 -177.53125 141.164062 -178.796875 132.1875 -178.796875 L 79.734375 -178.796875 L 79.734375 -49.015625 Z M 137.71875 -49.015625 "/></g></g></g><g fill="#000000" fill-opacity="1"><g transform="translate(1132.939672, 311.534799)"><g><path d="M 203.984375 -72.828125 C 203.984375 -59.253906 201.109375 -47.519531 195.359375 -37.625 C 189.609375 -27.726562 182.128906 -19.613281 172.921875 -13.28125 C 163.710938 -6.957031 153.703125 -2.300781 142.890625 0.6875 C 132.078125 3.675781 121.492188 5.171875 111.140625 5.171875 C 100.785156 5.171875 90.257812 3.675781 79.5625 0.6875 C 68.863281 -2.300781 58.910156 -6.957031 49.703125 -13.28125 C 40.492188 -19.613281 33.070312 -27.726562 27.4375 -37.625 C 21.800781 -47.519531 18.984375 -59.253906 18.984375 -72.828125 L 18.984375 -154.28125 C 18.984375 -167.863281 21.800781 -179.597656 27.4375 -189.484375 C 33.070312 -199.378906 40.492188 -207.488281 49.703125 -213.8125 C 58.910156 -220.144531 68.863281 -224.804688 79.5625 -227.796875 C 90.257812 -230.796875 100.785156 -232.296875 111.140625 -232.296875 C 121.492188 -232.296875 132.078125 -230.796875 142.890625 -227.796875 C 153.703125 -224.804688 163.710938 -220.144531 172.921875 -213.8125 C 182.128906 -207.488281 189.609375 -199.378906 195.359375 -189.484375 C 201.109375 -179.597656 203.984375 -167.863281 203.984375 -154.28125 Z M 149.796875 -149.453125 C 149.796875 -160.492188 146.226562 -169.0625 139.09375 -175.15625 C 131.957031 -181.257812 122.640625 -184.3125 111.140625 -184.3125 C 99.867188 -184.3125 90.664062 -181.257812 83.53125 -175.15625 C 76.394531 -169.0625 72.828125 -160.492188 72.828125 -149.453125 L 72.828125 -77.65625 C 72.828125 -66.613281 76.394531 -58.039062 83.53125 -51.9375 C 90.664062 -45.84375 99.867188 -42.796875 111.140625 -42.796875 C 122.640625 -42.796875 131.957031 -45.84375 139.09375 -51.9375 C 146.226562 -58.039062 149.796875 -66.613281 149.796875 -77.65625 Z M 149.796875 -149.453125 "/></g></g></g><g fill="#000000" fill-opacity="1"><g transform="translate(1355.55488, 311.534799)"><g><path d="M 194.328125 -10.703125 C 195.703125 -8.628906 195.988281 -6.328125 195.1875 -3.796875 C 194.382812 -1.265625 192.71875 0 190.1875 0 L 150.828125 0 C 147.148438 0 144.332031 -0.515625 142.375 -1.546875 C 140.414062 -2.585938 138.171875 -5.296875 135.640625 -9.671875 L 101.46875 -71.109375 L 66.953125 -9.671875 C 64.660156 -5.296875 62.535156 -2.585938 60.578125 -1.546875 C 58.617188 -0.515625 55.679688 0 51.765625 0 L 12.421875 0 C 9.890625 0 8.222656 -1.265625 7.421875 -3.796875 C 6.617188 -6.328125 6.90625 -8.628906 8.28125 -10.703125 L 69.71875 -116.3125 L 7.25 -217.453125 C 6.332031 -219.285156 6.21875 -221.351562 6.90625 -223.65625 C 7.59375 -225.957031 9.429688 -227.109375 12.421875 -227.109375 L 53.15625 -227.109375 C 56.375 -227.109375 58.90625 -226.359375 60.75 -224.859375 C 62.59375 -223.367188 64.660156 -220.785156 66.953125 -217.109375 L 101.46875 -161.53125 L 135.640625 -217.109375 C 138.171875 -220.785156 140.300781 -223.367188 142.03125 -224.859375 C 143.757812 -226.359375 146.347656 -227.109375 149.796875 -227.109375 L 190.1875 -227.109375 C 193.175781 -227.109375 195.070312 -225.957031 195.875 -223.65625 C 196.675781 -221.351562 196.503906 -219.285156 195.359375 -217.453125 L 133.234375 -116.3125 Z M 194.328125 -10.703125 "/></g></g></g><g fill="#000000" fill-opacity="1"><g transform="translate(1557.806803, 311.534799)"><g><path d="M 200.53125 -67.3125 C 200.53125 -56.257812 197.882812 -46.242188 192.59375 -37.265625 C 187.300781 -28.296875 180.335938 -20.644531 171.703125 -14.3125 C 163.078125 -7.988281 153.472656 -3.160156 142.890625 0.171875 C 132.304688 3.503906 121.609375 5.171875 110.796875 5.171875 C 100.441406 5.171875 89.851562 3.617188 79.03125 0.515625 C 68.21875 -2.585938 58.207031 -7.300781 49 -13.625 C 39.800781 -19.957031 32.382812 -28.015625 26.75 -37.796875 C 21.113281 -47.578125 18.296875 -59.253906 18.296875 -72.828125 L 18.296875 -154.28125 C 18.296875 -167.863281 21.113281 -179.539062 26.75 -189.3125 C 32.382812 -199.09375 39.800781 -207.144531 49 -213.46875 C 58.207031 -219.800781 68.21875 -224.519531 79.03125 -227.625 C 89.851562 -230.738281 100.441406 -232.296875 110.796875 -232.296875 C 125.054688 -232.296875 138.742188 -229.878906 151.859375 -225.046875 C 164.984375 -220.210938 176.03125 -212.960938 185 -203.296875 C 193.976562 -193.628906 199.15625 -181.429688 200.53125 -166.703125 C 200.53125 -162.566406 199.722656 -159.863281 198.109375 -158.59375 C 196.503906 -157.332031 193.742188 -156.703125 189.828125 -156.703125 L 156.703125 -156.703125 C 153.015625 -156.703125 150.710938 -157.96875 149.796875 -160.5 C 148.878906 -163.03125 147.726562 -165.332031 146.34375 -167.40625 C 142.664062 -173.15625 138.179688 -177.351562 132.890625 -180 C 127.597656 -182.644531 120.234375 -183.96875 110.796875 -183.96875 C 99.515625 -183.96875 90.304688 -180.914062 83.171875 -174.8125 C 76.046875 -168.71875 72.484375 -160.265625 72.484375 -149.453125 L 72.484375 -77.65625 C 72.484375 -66.613281 76.046875 -58.097656 83.171875 -52.109375 C 90.304688 -46.128906 99.515625 -43.140625 110.796875 -43.140625 C 120.234375 -43.140625 128.285156 -44.976562 134.953125 -48.65625 C 141.628906 -52.34375 145.65625 -58.328125 147.03125 -66.609375 C 147.5 -70.066406 148.25 -73.003906 149.28125 -75.421875 C 150.3125 -77.835938 152.671875 -79.046875 156.359375 -79.046875 L 190.1875 -79.046875 C 197.082031 -79.046875 200.53125 -75.132812 200.53125 -67.3125 Z M 200.53125 -67.3125 "/></g></g></g><g fill="#000000" fill-opacity="1"><g transform="translate(1775.935047, 311.534799)"><g><path d="M 203.984375 -72.828125 C 203.984375 -59.253906 201.109375 -47.519531 195.359375 -37.625 C 189.609375 -27.726562 182.128906 -19.613281 172.921875 -13.28125 C 163.710938 -6.957031 153.703125 -2.300781 142.890625 0.6875 C 132.078125 3.675781 121.492188 5.171875 111.140625 5.171875 C 100.785156 5.171875 90.257812 3.675781 79.5625 0.6875 C 68.863281 -2.300781 58.910156 -6.957031 49.703125 -13.28125 C 40.492188 -19.613281 33.070312 -27.726562 27.4375 -37.625 C 21.800781 -47.519531 18.984375 -59.253906 18.984375 -72.828125 L 18.984375 -154.28125 C 18.984375 -167.863281 21.800781 -179.597656 27.4375 -189.484375 C 33.070312 -199.378906 40.492188 -207.488281 49.703125 -213.8125 C 58.910156 -220.144531 68.863281 -224.804688 79.5625 -227.796875 C 90.257812 -230.796875 100.785156 -232.296875 111.140625 -232.296875 C 121.492188 -232.296875 132.078125 -230.796875 142.890625 -227.796875 C 153.703125 -224.804688 163.710938 -220.144531 172.921875 -213.8125 C 182.128906 -207.488281 189.609375 -199.378906 195.359375 -189.484375 C 201.109375 -179.597656 203.984375 -167.863281 203.984375 -154.28125 Z M 149.796875 -149.453125 C 149.796875 -160.492188 146.226562 -169.0625 139.09375 -175.15625 C 131.957031 -181.257812 122.640625 -184.3125 111.140625 -184.3125 C 99.867188 -184.3125 90.664062 -181.257812 83.53125 -175.15625 C 76.394531 -169.0625 72.828125 -160.492188 72.828125 -149.453125 L 72.828125 -77.65625 C 72.828125 -66.613281 76.394531 -58.039062 83.53125 -51.9375 C 90.664062 -45.84375 99.867188 -42.796875 111.140625 -42.796875 C 122.640625 -42.796875 131.957031 -45.84375 139.09375 -51.9375 C 146.226562 -58.039062 149.796875 -66.613281 149.796875 -77.65625 Z M 149.796875 -149.453125 "/></g></g></g><g fill="#000000" fill-opacity="1"><g transform="translate(1998.550255, 311.534799)"><g><path d="M 68 -58.328125 C 71.21875 -58.328125 73.6875 -57.632812 75.40625 -56.25 C 77.132812 -54.875 78 -52.234375 78 -48.328125 L 78 -10.015625 C 78 -6.097656 77.132812 -3.445312 75.40625 -2.0625 C 73.6875 -0.6875 71.21875 0 68 0 L 29.6875 0 C 26.695312 0 24.28125 -0.6875 22.4375 -2.0625 C 20.59375 -3.445312 19.671875 -6.097656 19.671875 -10.015625 L 19.671875 -48.328125 C 19.671875 -52.234375 20.59375 -54.875 22.4375 -56.25 C 24.28125 -57.632812 26.695312 -58.328125 29.6875 -58.328125 Z M 68 -58.328125 "/></g></g></g><g fill="#000000" fill-opacity="1"><g transform="translate(2096.224787, 311.534799)"><g><path d="M 112.859375 -227.109375 C 123.210938 -227.109375 133.796875 -225.554688 144.609375 -222.453125 C 155.429688 -219.347656 165.441406 -214.6875 174.640625 -208.46875 C 183.847656 -202.257812 191.328125 -194.265625 197.078125 -184.484375 C 202.835938 -174.703125 205.71875 -163.023438 205.71875 -149.453125 L 205.71875 -77.65625 C 205.71875 -64.082031 202.835938 -52.40625 197.078125 -42.625 C 191.328125 -32.84375 183.847656 -24.785156 174.640625 -18.453125 C 165.441406 -12.128906 155.429688 -7.472656 144.609375 -4.484375 C 133.796875 -1.492188 123.210938 0 112.859375 0 L 35.546875 0 C 31.640625 0 28.992188 -0.914062 27.609375 -2.75 C 26.234375 -4.59375 25.546875 -7.015625 25.546875 -10.015625 L 25.546875 -217.109375 C 25.546875 -220.328125 26.234375 -222.796875 27.609375 -224.515625 C 28.992188 -226.242188 31.640625 -227.109375 35.546875 -227.109375 Z M 151.53125 -144.625 C 151.53125 -155.4375 147.960938 -163.890625 140.828125 -169.984375 C 133.691406 -176.085938 124.367188 -179.140625 112.859375 -179.140625 L 79.734375 -179.140625 L 79.734375 -47.984375 L 112.859375 -47.984375 C 124.367188 -47.984375 133.691406 -50.972656 140.828125 -56.953125 C 147.960938 -62.929688 151.53125 -71.445312 151.53125 -82.5 Z M 151.53125 -144.625 "/></g></g></g><g fill="#000000" fill-opacity="1"><g transform="translate(2320.565534, 311.534799)"><g><path d="M 190.1875 -48.328125 C 194.09375 -48.328125 196.734375 -47.460938 198.109375 -45.734375 C 199.492188 -44.003906 200.1875 -41.53125 200.1875 -38.3125 L 200.1875 -10.015625 C 200.1875 -7.015625 199.492188 -4.59375 198.109375 -2.75 C 196.734375 -0.914062 194.09375 0 190.1875 0 L 35.546875 0 C 31.640625 0 28.992188 -0.914062 27.609375 -2.75 C 26.234375 -4.59375 25.546875 -7.015625 25.546875 -10.015625 L 25.546875 -217.109375 C 25.546875 -220.328125 26.234375 -222.796875 27.609375 -224.515625 C 28.992188 -226.242188 31.640625 -227.109375 35.546875 -227.109375 L 184.3125 -227.109375 C 188.226562 -227.109375 190.875 -226.242188 192.25 -224.515625 C 193.632812 -222.796875 194.328125 -220.328125 194.328125 -217.109375 L 194.328125 -188.453125 C 194.328125 -185.460938 193.632812 -183.046875 192.25 -181.203125 C 190.875 -179.367188 188.226562 -178.453125 184.3125 -178.453125 L 80.078125 -178.453125 L 80.078125 -140.828125 L 172.578125 -140.828125 C 176.492188 -140.828125 179.140625 -139.960938 180.515625 -138.234375 C 181.898438 -136.503906 182.59375 -134.03125 182.59375 -130.8125 L 182.59375 -103.890625 C 182.59375 -100.898438 181.898438 -98.484375 180.515625 -96.640625 C 179.140625 -94.796875 176.492188 -93.875 172.578125 -93.875 L 80.078125 -93.875 L 80.078125 -48.328125 Z M 190.1875 -48.328125 "/></g></g></g><g fill="#000000" fill-opacity="1"><g transform="translate(2536.968239, 311.534799)"><g><path d="M 193.625 30.375 C 196.851562 30.375 199.328125 31.0625 201.046875 32.4375 C 202.773438 33.820312 203.640625 36.472656 203.640625 40.390625 L 203.640625 51.078125 C 203.640625 54.992188 202.773438 57.640625 201.046875 59.015625 C 199.328125 60.398438 196.851562 61.09375 193.625 61.09375 L 10.015625 61.09375 C 7.015625 61.09375 4.59375 60.398438 2.75 59.015625 C 0.914062 57.640625 0 54.992188 0 51.078125 L 0 40.390625 C 0 36.472656 0.914062 33.820312 2.75 32.4375 C 4.59375 31.0625 7.015625 30.375 10.015625 30.375 Z M 193.625 30.375 "/></g></g></g></g></g></svg>